<svg xmlns="http://www.w3.org/2000/svg" xmlns:xlink="http://www.w3.org/1999/xlink" width="500" zoomAndPan="magnify" viewBox="0 0 375 374.999991" height="500" preserveAspectRatio="xMidYMid meet" version="1.0"><defs><g/><clipPath id="ed221c7f3e"><path d="M 75.3125 149.007812 L 159.058594 149.007812 L 159.058594 215.238281 L 75.3125 215.238281 Z M 75.3125 149.007812 " clip-rule="nonzero"/></clipPath></defs><g clip-path="url(#ed221c7f3e)"><path fill="#49bce2" d="M 75.3125 149.007812 L 159.6875 149.007812 L 159.6875 215.804688 L 75.3125 215.804688 Z M 75.3125 149.007812 " fill-opacity="1" fill-rule="nonzero"/></g><g fill="#ffc107" fill-opacity="1"><g transform="translate(163.077577, 204.392828)"><g><path d="M 18.984375 -21.828125 C 17.078125 -21.828125 15.441406 -21.125 14.078125 -19.71875 C 12.710938 -18.3125 12.03125 -16.625 12.03125 -14.65625 C 12.03125 -12.632812 12.710938 -10.921875 14.078125 -9.515625 C 15.441406 -8.109375 17.078125 -7.40625 18.984375 -7.40625 C 19.890625 -7.40625 20.75 -7.519531 21.5625 -7.75 C 22.382812 -7.976562 22.988281 -8.207031 23.375 -8.4375 L 23.890625 -8.78125 L 27.296875 -1.765625 C 27.035156 -1.578125 26.664062 -1.335938 26.1875 -1.046875 C 25.71875 -0.765625 24.632812 -0.378906 22.9375 0.109375 C 21.25 0.609375 19.4375 0.859375 17.5 0.859375 C 13.207031 0.859375 9.4375 -0.648438 6.1875 -3.671875 C 2.9375 -6.691406 1.3125 -10.3125 1.3125 -14.53125 C 1.3125 -18.789062 2.9375 -22.445312 6.1875 -25.5 C 9.4375 -28.5625 13.207031 -30.09375 17.5 -30.09375 C 19.4375 -30.09375 21.222656 -29.863281 22.859375 -29.40625 C 24.492188 -28.957031 25.648438 -28.503906 26.328125 -28.046875 L 27.296875 -27.359375 L 23.890625 -20.46875 C 22.628906 -21.375 20.992188 -21.828125 18.984375 -21.828125 Z M 18.984375 -21.828125 "/></g></g></g><g fill="#ffc107" fill-opacity="1"><g transform="translate(191.064571, 204.392828)"><g><path d="M 5.40625 -3.609375 C 2.675781 -6.597656 1.3125 -10.257812 1.3125 -14.59375 C 1.3125 -18.925781 2.675781 -22.59375 5.40625 -25.59375 C 8.144531 -28.59375 11.625 -30.09375 15.84375 -30.09375 C 19.71875 -30.09375 22.910156 -28.878906 25.421875 -26.453125 L 25.421875 -29.234375 L 35.515625 -29.234375 L 35.515625 0 L 25.53125 0 L 25.53125 -3.3125 L 25.421875 -3.3125 C 22.910156 -0.53125 19.71875 0.859375 15.84375 0.859375 C 11.625 0.859375 8.144531 -0.628906 5.40625 -3.609375 Z M 13.984375 -19.546875 C 12.679688 -18.253906 12.03125 -16.601562 12.03125 -14.59375 C 12.03125 -12.582031 12.65625 -10.9375 13.90625 -9.65625 C 15.15625 -8.382812 16.804688 -7.75 18.859375 -7.75 C 20.835938 -7.75 22.460938 -8.394531 23.734375 -9.6875 C 25.015625 -10.976562 25.65625 -12.613281 25.65625 -14.59375 C 25.65625 -16.601562 25 -18.253906 23.6875 -19.546875 C 22.375 -20.835938 20.765625 -21.484375 18.859375 -21.484375 C 16.921875 -21.484375 15.296875 -20.835938 13.984375 -19.546875 Z M 13.984375 -19.546875 "/></g></g></g><g fill="#ffc107" fill-opacity="1"><g transform="translate(229.995561, 204.392828)"><g><path d="M 3.421875 0 L 3.421875 -29.234375 L 13.515625 -29.234375 L 13.515625 -25.015625 L 13.625 -25.015625 C 13.695312 -25.171875 13.816406 -25.363281 13.984375 -25.59375 C 14.160156 -25.820312 14.53125 -26.21875 15.09375 -26.78125 C 15.664062 -27.351562 16.273438 -27.867188 16.921875 -28.328125 C 17.566406 -28.785156 18.398438 -29.191406 19.421875 -29.546875 C 20.453125 -29.910156 21.503906 -30.09375 22.578125 -30.09375 C 23.671875 -30.09375 24.75 -29.941406 25.8125 -29.640625 C 26.882812 -29.335938 27.664062 -29.035156 28.15625 -28.734375 L 28.953125 -28.265625 L 24.734375 -19.71875 C 23.484375 -20.78125 21.738281 -21.3125 19.5 -21.3125 C 18.28125 -21.3125 17.234375 -21.046875 16.359375 -20.515625 C 15.484375 -19.984375 14.863281 -19.335938 14.5 -18.578125 C 14.144531 -17.816406 13.890625 -17.171875 13.734375 -16.640625 C 13.585938 -16.109375 13.515625 -15.691406 13.515625 -15.390625 L 13.515625 0 Z M 3.421875 0 "/></g></g></g><g fill="#ffc107" fill-opacity="1"><g transform="translate(258.381553, 204.392828)"><g><path d="M 33 -13.21875 L 11.796875 -13.21875 C 11.796875 -11.164062 12.457031 -9.644531 13.78125 -8.65625 C 15.113281 -7.675781 16.5625 -7.1875 18.125 -7.1875 C 19.757812 -7.1875 21.050781 -7.40625 22 -7.84375 C 22.945312 -8.28125 24.03125 -9.144531 25.25 -10.4375 L 32.546875 -6.78125 C 29.503906 -1.6875 24.453125 0.859375 17.390625 0.859375 C 12.972656 0.859375 9.1875 -0.648438 6.03125 -3.671875 C 2.882812 -6.691406 1.3125 -10.328125 1.3125 -14.578125 C 1.3125 -18.835938 2.882812 -22.488281 6.03125 -25.53125 C 9.1875 -28.570312 12.972656 -30.09375 17.390625 -30.09375 C 22.023438 -30.09375 25.796875 -28.753906 28.703125 -26.078125 C 31.609375 -23.398438 33.0625 -19.570312 33.0625 -14.59375 C 33.0625 -13.90625 33.039062 -13.445312 33 -13.21875 Z M 12.078125 -18.8125 L 23.203125 -18.8125 C 22.972656 -20.332031 22.375 -21.5 21.40625 -22.3125 C 20.4375 -23.132812 19.191406 -23.546875 17.671875 -23.546875 C 15.992188 -23.546875 14.660156 -23.109375 13.671875 -22.234375 C 12.691406 -21.359375 12.160156 -20.21875 12.078125 -18.8125 Z M 12.078125 -18.8125 "/></g></g></g><g fill="#ffffff" fill-opacity="1"><g transform="translate(80.085738, 206.417828)"><g><path d="M 3.5625 -48.875 L 17.71875 -48.875 C 24.507812 -48.875 30.3125 -46.550781 35.125 -41.90625 C 39.945312 -37.269531 42.359375 -31.457031 42.359375 -24.46875 C 42.359375 -17.4375 39.957031 -11.597656 35.15625 -6.953125 C 30.363281 -2.316406 24.550781 0 17.71875 0 L 3.5625 0 Z M 14.6875 -9.953125 L 16.40625 -9.953125 C 20.476562 -9.953125 23.804688 -11.320312 26.390625 -14.0625 C 28.984375 -16.8125 30.300781 -20.257812 30.34375 -24.40625 C 30.34375 -28.550781 29.046875 -32.003906 26.453125 -34.765625 C 23.867188 -37.535156 20.519531 -38.921875 16.40625 -38.921875 L 14.6875 -38.921875 Z M 14.6875 -9.953125 "/></g></g></g><g fill="#ffffff" fill-opacity="1"><g transform="translate(123.812237, 206.417828)"><g><path d="M 3.5625 0 L 3.5625 -30.390625 L 14.046875 -30.390625 L 14.046875 -26.015625 L 14.15625 -26.015625 C 14.238281 -26.171875 14.367188 -26.363281 14.546875 -26.59375 C 14.722656 -26.832031 15.109375 -27.25 15.703125 -27.84375 C 16.296875 -28.4375 16.925781 -28.96875 17.59375 -29.4375 C 18.269531 -29.914062 19.140625 -30.34375 20.203125 -30.71875 C 21.265625 -31.09375 22.351562 -31.28125 23.46875 -31.28125 C 24.613281 -31.28125 25.738281 -31.125 26.84375 -30.8125 C 27.945312 -30.5 28.753906 -30.179688 29.265625 -29.859375 L 30.09375 -29.390625 L 25.71875 -20.5 C 24.414062 -21.601562 22.597656 -22.15625 20.265625 -22.15625 C 19.003906 -22.15625 17.914062 -21.878906 17 -21.328125 C 16.09375 -20.773438 15.453125 -20.101562 15.078125 -19.3125 C 14.703125 -18.519531 14.4375 -17.847656 14.28125 -17.296875 C 14.125 -16.742188 14.046875 -16.3125 14.046875 -16 L 14.046875 0 Z M 3.5625 0 "/></g></g></g></svg>