<svg height="80" viewBox="0 0 80 80" width="80" xmlns="http://www.w3.org/2000/svg"><g fill="none" fill-rule="evenodd"><path d="M8 6h65.164v65.164H8z" fill="#fff"/><path d="M0 0v80h80V0zm68.487 68.487H11.44V11.44h57.048z" fill="#19307c" fill-rule="nonzero"/><g fill="#000" transform="translate(17 40)"><path d="M.364 6.036V5.018l2.909-3.636H.727V.436H4.8v.873L1.818 5.091h3.2v.945z"/><path d="m8 4.8 1.018.145c-.145.364-.363.655-.654.873s-.655.364-1.091.364c-.728 0-1.237-.218-1.528-.655-.29-.363-.363-.8-.363-1.382 0-.654.145-1.236.582-1.6.363-.363.8-.581 1.309-.581.582 0 1.09.218 1.454.581.364.364.51 1.019.51 1.819H6.544a.97.97 0 0 0 .291.727c.146.145.364.29.582.29.146 0 .364-.072.437-.145 0-.145.072-.29.145-.436zm.073-1.164c0-.363-.146-.581-.218-.727-.146-.145-.364-.218-.582-.218s-.437.145-.582.29c-.146.146-.218.364-.218.728z" fill-rule="nonzero"/><path d="M11.055 6.036h-1.019V1.964h1.019v.581c.145-.29.363-.436.436-.581.145-.146.29-.146.436-.146.218 0 .51.073.728.218l-.364.946c-.218-.073-.364-.073-.51-.073a.556.556 0 0 0-.363.146c-.145.145-.145.218-.218.436s-.145.654-.145 1.382v1.163z"/><path d="M14.91 1.964v.8h-.728v2.254c0 .073.073.146.145.146a.225.225 0 0 0 .146.072c.145 0 .218-.072.436-.145l.146.8c-.291.145-.582.145-.8.145-.146 0-.364-.072-.51-.145-.145-.073-.29-.146-.363-.291s-.146-.218-.146-.436c0-.146-.072-.364-.072-.8V2.618h-.51v-.8h.51v-.8l1.018-.582v1.455h.727z"/><path d="M15.71 1.455V.436h1.017v1.019zm0 4.581V1.964h1.017v4.072z" fill-rule="nonzero"/><path d="M17.382 1.964h.582V1.6c0-.364.072-.582.145-.8s.218-.364.364-.364c.218-.145.436-.145.727-.145.364 0 .582.073.873.145l-.146.8c-.145-.072-.363-.072-.509-.072a.556.556 0 0 0-.363.145c-.073.073-.146.218-.146.436v.291h.8v.8h-.8v3.2h-1.018v-3.2h-.582z"/><path d="M20.436 1.455V.436h1.019v1.019zm0 4.581V1.964h1.019v4.072z" fill-rule="nonzero"/><path d="M22.255 6.036v-.8l1.527-1.745c.29-.291.436-.51.582-.582H22.4v-.873h3.345v.8l-1.527 1.746-.582.509h2.255v.945z"/><path d="M26.545 1.455V.436h1.091v1.019zm0 4.581V1.964h1.091v4.072z" fill-rule="nonzero"/><path d="m31.127 4.8 1.018.145c-.145.364-.363.655-.654.873s-.655.364-1.091.364c-.727 0-1.236-.218-1.527-.655-.291-.363-.364-.8-.364-1.382 0-.654.146-1.236.582-1.6.364-.363.8-.581 1.309-.581.582 0 1.09.218 1.455.581.363.364.509 1.019.509 1.819h-2.691a.97.97 0 0 0 .29.727c.146.145.364.29.582.29.146 0 .364-.072.437-.145-.073-.145.073-.29.145-.436zm.073-1.164c0-.363-.145-.581-.218-.727-.146-.145-.364-.218-.582-.218s-.436.145-.582.29c-.145.146-.218.364-.218.728z" fill-rule="nonzero"/><path d="M34.182 6.036h-1.018V1.964h1.018v.581c.145-.29.363-.436.436-.581.146-.146.291-.146.437-.146.218 0 .509.073.727.218l-.364.946c-.218-.073-.363-.073-.509-.073a.556.556 0 0 0-.364.146c-.145.145-.145.218-.218.436-.145.145-.145.582-.145 1.309z"/><path d="M38.036 1.964v.8h-.727v2.254c0 .073.073.146.146.146a.225.225 0 0 0 .145.072c.145 0 .218-.072.436-.145l.146.8c-.291.145-.582.145-.8.145-.146 0-.364-.072-.51-.145-.145-.073-.29-.146-.363-.291s-.145-.218-.145-.436c0-.146-.073-.364-.073-.8V2.618h-.51v-.8h.51v-.8l1.018-.582v1.455h.727z"/><path d="m41.164 4.8 1.018.145c-.146.364-.364.655-.655.873s-.654.364-1.09.364c-.728 0-1.237-.218-1.528-.655-.29-.363-.364-.8-.364-1.382 0-.654.146-1.236.582-1.6.364-.363.8-.581 1.31-.581.581 0 1.09.218 1.454.581.364.364.509 1.019.509 1.819h-2.69a.97.97 0 0 0 .29.727c.145.145.364.29.582.29.145 0 .363-.072.436-.145-.073-.145.073-.29.146-.436zm0-1.164c0-.363-.146-.581-.219-.727a.826.826 0 0 0-.581-.218c-.219 0-.437.145-.582.29-.146.146-.218.364-.218.728z" fill-rule="nonzero"/><path d="m42.764 4.873 1.018-.146c.073.218.145.364.29.51.146.145.364.145.583.145.29 0 .509-.073.581-.146.146-.072.146-.145.146-.29 0-.073 0-.146-.073-.219-.073-.072-.145-.145-.364-.145-.872-.146-1.454-.364-1.672-.51-.364-.217-.51-.508-.51-.945 0-.363.146-.654.437-.872.29-.219.727-.364 1.31-.364s.945.145 1.235.29c.291.146.437.437.582.8l-1.018.146c-.073-.145-.145-.29-.218-.363-.146-.146-.291-.146-.51-.146-.29 0-.508.073-.581.146-.073.072-.145.145-.145.218s.072.145.145.218c.145.073.436.145 1.018.29.582.146 1.018.292 1.237.51.218.145.363.436.363.8s-.145.655-.436.945c-.364.291-.8.364-1.382.364s-1.018-.145-1.31-.364c-.363-.218-.654-.509-.726-.872z"/><path d="M10.91 15.49V9.819h.726v2.327h2.91V9.818h.727v5.6h-.728v-2.69h-2.909v2.69z"/><path d="M16.218 13.382c0-.8.218-1.31.582-1.673.364-.29.8-.436 1.31-.436.58 0 1.017.145 1.38.582.365.363.583.872.583 1.527 0 .509-.073.945-.218 1.236-.146.291-.364.582-.655.727-.29.146-.582.219-1.018.219-.582 0-1.018-.146-1.382-.582-.364-.364-.582-.873-.582-1.6zm.727 0c0 .509.146.873.364 1.163.218.291.51.364.8.364.364 0 .582-.145.8-.364.218-.218.364-.654.364-1.163s-.146-.873-.364-1.164-.509-.363-.8-.363c-.364 0-.582.145-.8.363-.218.291-.364.727-.364 1.164z" fill-rule="nonzero"/><path d="m20.582 14.255.654-.146c.073.291.146.51.364.582.145.145.436.218.727.218.364 0 .582-.073.728-.145.145-.146.218-.291.218-.437a.4.4 0 0 0-.218-.363c-.146-.073-.364-.146-.728-.219-.509-.145-.8-.218-1.018-.363-.218-.146-.364-.218-.436-.364-.146-.145-.146-.363-.146-.582 0-.145.073-.363.146-.509a.876.876 0 0 1 .363-.363l.437-.219c.145-.072.363-.072.582-.072.363 0 .581.072.8.145.218.146.436.218.581.364.146.145.146.363.219.582l-.655.145c-.073-.218-.145-.364-.29-.509-.146-.145-.365-.145-.583-.145-.363 0-.582.072-.654.145-.146.145-.218.218-.218.364 0 .145.072.145.145.218s.145.145.29.145c.074 0 .292.146.583.146.509.145.8.218 1.018.363.218.146.364.219.436.364.146.145.146.364.146.582s-.073.436-.218.654a1.131 1.131 0 0 1-.582.437c-.291.145-.582.145-.8.145-.582 0-.946-.145-1.237-.363-.363-.073-.581-.364-.654-.8z"/><path d="m26.255 14.836.145.582c-.145.073-.364.073-.51.073-.29 0-.435-.073-.58-.146-.146-.072-.22-.145-.292-.363-.073-.146-.145-.364-.145-.8v-2.327h-.51v-.582h.51v-1.018l.654-.364v1.454h.655v.582h-.655v2.4c0 .218 0 .364.073.364 0 .073.073.145.145.145.073.073.146.073.219.073.072-.073.218-.073.29-.073z"/><path d="M26.982 10.618v-.8h.9v.8zm0 4.873v-4.073h.9v4.073z" fill-rule="nonzero"/><path d="M28.727 15.49v-4.072h.582V12c.291-.436.727-.655 1.31-.655.217 0 .436.073.654.146.218.145.363.218.436.364.146.145.146.363.218.509 0 .145.073.363.073.654v2.473h-.655v-2.473c0-.29 0-.509-.072-.582-.073-.145-.146-.29-.291-.363-.146-.073-.291-.146-.51-.146-.29 0-.581.146-.8.291-.217.146-.363.582-.363 1.018v2.182z"/><path d="m32.945 15.782.655.145c.073.218.145.364.218.437.146.145.364.145.727.145.364 0 .582-.073.728-.145.145-.146.29-.364.363-.582.073-.146.073-.437.073-.873-.29.364-.654.582-1.09.582-.583 0-1.019-.218-1.31-.582-.364-.364-.436-.873-.436-1.454 0-.364.072-.728.218-1.019.145-.363.364-.581.582-.8.29-.145.582-.29.945-.29.51 0 .873.145 1.164.581v-.509h.582v3.491c0 .582-.073 1.091-.146 1.31-.145.29-.363.508-.582.581-.29.145-.581.218-1.018.218-.509 0-.873-.145-1.163-.363-.437-.073-.51-.437-.51-.873zm.582-2.4c0 .582.146.945.364 1.163.218.219.509.364.8.364.364 0 .582-.145.8-.364.218-.218.364-.581.364-1.163 0-.51-.146-.873-.364-1.091-.218-.291-.51-.364-.8-.364-.364 0-.582.146-.8.364-.291.218-.364.582-.364 1.09z" fill-rule="nonzero"/></g><path d="M33.364 19.655h13.09v13.09h-13.09z" fill="#f9e419"/><g stroke="#19307c" stroke-linecap="round" stroke-width="5.6693" transform="translate(35.909091 23.363636)"><path d="m.29 2.11 2.837 2.908"/><path d="M7.636.582 3.273 5.018"/></g></g></svg>