<svg id="Ebene_1" data-name="Ebene 1" xmlns="http://www.w3.org/2000/svg" viewBox="0 0 225.93 119.62"><rect x="0.02" y="0.03" width="225.9" height="119.55" fill="#d2dbe5"/><path d="M103.28 28.56a5 5 0 0 1-4.16-1.67 8.23 8.23 0 0 1-1.33-5.15 7.59 7.59 0 0 1 1.49-5.15 5.77 5.77 0 0 1 4.56-1.67 10.89 10.89 0 0 1 1.34.09 13.79 13.79 0 0 1 1.49.27v2c-.54-.1-1-.17-1.43-.23a9.83 9.83 0 0 0-1.15-.08 5.14 5.14 0 0 0-1.73.25 2.46 2.46 0 0 0-1.16.8 3.57 3.57 0 0 0-.63 1.46 11.81 11.81 0 0 0-.19 2.25 11.67 11.67 0 0 0 .18 2.23 3.79 3.79 0 0 0 .54 1.45 2.24 2.24 0 0 0 1 .79 4.22 4.22 0 0 0 1.52.24h.92v-4.81h2.28v6.64c-.79.11-1.45.18-2 .23s-1.05.06-1.54.06z" fill="#253786"/><path d="M112.53 28.56a3.92 3.92 0 0 1-3.14-1.24 5.49 5.49 0 0 1-1.07-3.66 6 6 0 0 1 1.06-3.85 3.8 3.8 0 0 1 3.14-1.29 3.07 3.07 0 0 1 2.6 1.09A5.64 5.64 0 0 1 116 23v.78c0 .19 0 .38-.06.58h-5.07a3.18 3.18 0 0 0 .5 1.79 1.7 1.7 0 0 0 1.37.5 7.08 7.08 0 0 0 1.26-.13 14.16 14.16 0 0 0 1.58-.37l.09 1.83a8.13 8.13 0 0 1-1.47.41 9.28 9.28 0 0 1-1.67.17zm-.09-8.19a1.32 1.32 0 0 0-1.15.57 3.85 3.85 0 0 0-.48 1.86h3a4.76 4.76 0 0 0-.33-1.87 1 1 0 0 0-1.04-.56z" fill="#253786"/><path d="M117.57 18.68h2.25l.11 1h.07a3 3 0 0 1 1.07-.84 3.19 3.19 0 0 1 1.4-.29c2.06 0 3.1 1.57 3.1 4.71a8.82 8.82 0 0 1-.26 2.21 4.73 4.73 0 0 1-.81 1.67 3.5 3.5 0 0 1-1.38 1.07 5 5 0 0 1-2 .38h-.48a4.76 4.76 0 0 1-.58-.07v3.89h-2.47zm3.55 8.22a2 2 0 0 0 .89-.17 1.29 1.29 0 0 0 .6-.56 3.25 3.25 0 0 0 .33-1.05 10.1 10.1 0 0 0 .11-1.6A13 13 0 0 0 123 22a3.6 3.6 0 0 0-.26-1 1.08 1.08 0 0 0-.46-.54 1.48 1.48 0 0 0-1.32 0 1.36 1.36 0 0 0-.48.5 3 3 0 0 0-.3.9 7.51 7.51 0 0 0-.18 1.34v3.51a3 3 0 0 0 1.12.19z" fill="#253786"/><path d="M127.2 18.68h2.09l.15 1.35h.12a1.72 1.72 0 0 1 .36-.34q.27-.2.63-.42c.24-.14.5-.28.77-.41s.52-.25.76-.34h.47v2.35h-1a4 4 0 0 0-.55.13l-.54.2a3 3 0 0 0-.47.24 2.54 2.54 0 0 0-.33.26v6.7h-2.46z" fill="#253786"/><path d="M136.22 28.58a2.38 2.38 0 0 1-1.81-.68 2.7 2.7 0 0 1-.64-1.91v-7.31h2.47v6.53a1.53 1.53 0 0 0 .23 1 .93.93 0 0 0 .76.28 2.09 2.09 0 0 0 .75-.15 4.9 4.9 0 0 0 .91-.51v-7.15h2.46v9.72h-2.09l-.14-1h-.07c-.34.23-.63.41-.88.56a6 6 0 0 1-.71.36 2.58 2.58 0 0 1-.62.19 3 3 0 0 1-.62.07zm-.59-11.31a1.39 1.39 0 0 1-1-.28 1.28 1.28 0 0 1-.3-.94c0-.82.42-1.22 1.26-1.22a1.38 1.38 0 0 1 1 .28 1.21 1.21 0 0 1 .33.94 1.21 1.21 0 0 1-.33.94 1.38 1.38 0 0 1-.96.28zm3.89 0a1.38 1.38 0 0 1-1-.28 1.28 1.28 0 0 1-.3-.94c0-.82.42-1.22 1.26-1.22a1.35 1.35 0 0 1 .94.28 1.24 1.24 0 0 1 .32.94 1.24 1.24 0 0 1-.32.94 1.35 1.35 0 0 1-.9.28z" fill="#253786"/><path d="M152.87 28.51a3.18 3.18 0 0 1-2.22-.7 2.64 2.64 0 0 1-.75-2v-5h-3.42v7.59H144v-7.65h-1.3v-2.07h1.3v-.54a7.64 7.64 0 0 1 .23-2 2.79 2.79 0 0 1 .77-1.34 3.32 3.32 0 0 1 1.43-.76 10 10 0 0 1 2.21-.29l.14 1.87a5.34 5.34 0 0 0-1.15.18 1.56 1.56 0 0 0-.71.38 1.52 1.52 0 0 0-.36.69 4.57 4.57 0 0 0-.1 1.07v.74h3.57l.32-2.68 2-.27v2.95h2v2.09h-2v4.42a1.75 1.75 0 0 0 .28 1.13 1 1 0 0 0 .83.33h.43a2.77 2.77 0 0 0 .47-.09v1.8a5.71 5.71 0 0 1-.74.13 6.78 6.78 0 0 1-.75.02z" fill="#253786"/><path d="M159.64 28.56a3.91 3.91 0 0 1-3.14-1.24 5.44 5.44 0 0 1-1.07-3.66 6 6 0 0 1 1-3.85 3.81 3.81 0 0 1 3.14-1.29 3.06 3.06 0 0 1 2.6 1.09 5.63 5.63 0 0 1 .84 3.41v1.36h-5.08a3.17 3.17 0 0 0 .51 1.79 1.67 1.67 0 0 0 1.36.5 7.08 7.08 0 0 0 1.26-.13 14.84 14.84 0 0 0 1.59-.37l.09 1.83a8 8 0 0 1-1.48.41 9.17 9.17 0 0 1-1.62.15zm-.09-8.19a1.31 1.31 0 0 0-1.15.57 3.72 3.72 0 0 0-.49 1.86h3a4.42 4.42 0 0 0-.33-1.87 1 1 0 0 0-1.03-.56z" fill="#253786"/><path d="M164.68 18.68h2.09l.14 1.35h.09a1.72 1.72 0 0 1 .36-.34q.27-.2.63-.42c.24-.14.49-.28.76-.41s.53-.25.77-.34h.48v2.35h-1a4 4 0 0 0-.55.13l-.54.2a2.48 2.48 0 0 0-.46.24 2.71 2.71 0 0 0-.34.26v6.7h-2.46z" fill="#253786"/><path d="M101.23 48h-1.3c-.46 0-1-.07-1.63-.13V34.48c.72-.08 1.33-.14 1.82-.17s1 0 1.4 0a9.76 9.76 0 0 1 2.89.37 4.41 4.41 0 0 1 2 1.21 5 5 0 0 1 1.1 2.12 12.41 12.41 0 0 1 .34 3.14 12.06 12.06 0 0 1-.36 3.16 4.94 4.94 0 0 1-1.15 2.15 4.64 4.64 0 0 1-2 1.2 10.6 10.6 0 0 1-3.11.34zm.83-2.07a4 4 0 0 0 1.47-.24 2.16 2.16 0 0 0 1-.8 4.31 4.31 0 0 0 .47-1.49 13.48 13.48 0 0 0 .17-2.31 14.27 14.27 0 0 0-.16-2.27 3.78 3.78 0 0 0-.55-1.48 2.17 2.17 0 0 0-1-.8 4.35 4.35 0 0 0-1.55-.24 6.11 6.11 0 0 0-.64 0 3.08 3.08 0 0 0-.53.08v9.43c.3 0 .55.06.75.07z" fill="#253786"/><path d="M111.49 47.84a2.42 2.42 0 0 1-1.87-.77 2.85 2.85 0 0 1-.7-2q0-2.77 3.45-3l1.66-.1v-.31a5.65 5.65 0 0 0-.07-.92 1.26 1.26 0 0 0-.26-.57.94.94 0 0 0-.52-.3 3.07 3.07 0 0 0-.81-.08h-.53l-.7.07-.72.08a5.5 5.5 0 0 0-.59.1l-.16-1.8c.52-.1 1-.18 1.58-.24a13.37 13.37 0 0 1 1.5-.09 4.51 4.51 0 0 1 2.85.73 2.85 2.85 0 0 1 .89 2.35v6.79h-2l-.2-1.17h-.14a4.31 4.31 0 0 1-1.15.89 3.15 3.15 0 0 1-1.51.34zm.92-1.82a1.8 1.8 0 0 0 .84-.24c.29-.17.55-.32.78-.48v-1.87l-1.12.11a2.21 2.21 0 0 0-1.19.38 1.11 1.11 0 0 0-.36.91 1.27 1.27 0 0 0 .27.88 1 1 0 0 0 .78.29z" fill="#253786"/><path d="M122.16 47.86a3.18 3.18 0 0 1-2.22-.7 2.64 2.64 0 0 1-.75-2v-5h-1.51V38h1.66l.32-2.68 2-.27v3h2v2.09h-2v4.42a1.75 1.75 0 0 0 .28 1.13 1 1 0 0 0 .84.33h.42a3.08 3.08 0 0 0 .48-.09v1.8a5.86 5.86 0 0 1-.75.13 6.64 6.64 0 0 1-.77 0z" fill="#253786"/><path d="M128.93 47.91a3.92 3.92 0 0 1-3.14-1.24 5.49 5.49 0 0 1-1.07-3.67 6 6 0 0 1 1-3.85 3.83 3.83 0 0 1 3.14-1.29 3.08 3.08 0 0 1 2.66 1.14 5.71 5.71 0 0 1 .83 3.41v.78c0 .19 0 .38-.05.58h-5.1a3.17 3.17 0 0 0 .51 1.79 1.68 1.68 0 0 0 1.37.5 7.26 7.26 0 0 0 1.26-.13 14.16 14.16 0 0 0 1.58-.37l.09 1.83a8 8 0 0 1-1.48.41 9.08 9.08 0 0 1-1.6.11zm-.09-8.19a1.31 1.31 0 0 0-1.15.57 3.83 3.83 0 0 0-.49 1.86h3a4.55 4.55 0 0 0-.34-1.87 1 1 0 0 0-1.02-.56z" fill="#253786"/><path d="M134 38h2.09l.14 1h.08c.36-.23.67-.42.95-.58a4.54 4.54 0 0 1 .77-.38 3.9 3.9 0 0 1 .7-.2 3.85 3.85 0 0 1 .69-.06 2 2 0 0 1 1.61.66 3 3 0 0 1 .55 1.93v7.31h-2.48v-6.41a1.51 1.51 0 0 0-.24-1 .82.82 0 0 0-.68-.29 2.16 2.16 0 0 0-.83.17 4.22 4.22 0 0 0-.91.48v7.09H134z" fill="#253786"/><path d="M146 47.93a9.41 9.41 0 0 1-2.78-.47v-1.84a7.43 7.43 0 0 0 1.32.35 8.59 8.59 0 0 0 1.38.12c.88 0 1.32-.35 1.32-1.06a1 1 0 0 0-.28-.74 1.8 1.8 0 0 0-.91-.39l-.92-.19a2.69 2.69 0 0 1-.91-.42 2.16 2.16 0 0 1-.69-.86 3.64 3.64 0 0 1-.27-1.54 3 3 0 0 1 .84-2.25 3.27 3.27 0 0 1 2.36-.79 9.6 9.6 0 0 1 1.27.09c.45.06.92.14 1.4.25V40a11 11 0 0 0-1.27-.26c-.31 0-.6-.05-.87-.05a1.77 1.77 0 0 0-1.07.28.91.91 0 0 0-.37.78.89.89 0 0 0 .32.8 2.47 2.47 0 0 0 .85.34 10 10 0 0 1 1 .26 2.89 2.89 0 0 1 .93.46 2.14 2.14 0 0 1 .67.83 3.12 3.12 0 0 1 .27 1.4 2.78 2.78 0 0 1-1 2.25 4 4 0 0 1-2.59.84z" fill="#253786"/><path d="M155.28 47.91a4.4 4.4 0 0 1-3.39-1.21 5.44 5.44 0 0 1-1.12-3.81 5.42 5.42 0 0 1 1.13-3.81 4.39 4.39 0 0 1 3.38-1.21 6 6 0 0 1 1.79.27v1.94a7.05 7.05 0 0 0-.81-.15 6.4 6.4 0 0 0-.73 0 2 2 0 0 0-1.71.69 4 4 0 0 0-.52 2.3 4.08 4.08 0 0 0 .52 2.32 2 2 0 0 0 1.7.72 6.28 6.28 0 0 0 .75 0 4.92 4.92 0 0 0 .8-.16v1.93a5.47 5.47 0 0 1-.84.2 7.59 7.59 0 0 1-.95-.02z" fill="#253786"/><path d="M158.72 33.2h2.47V39c.33-.21.63-.39.9-.53a7.59 7.59 0 0 1 .73-.34 3.7 3.7 0 0 1 .66-.19 4.65 4.65 0 0 1 .66 0 2 2 0 0 1 1.61.66 3 3 0 0 1 .55 1.93v7.31h-2.45v-6.57c0-.84-.31-1.26-.92-1.26a3.25 3.25 0 0 0-1.74.65v7.09h-2.47z" fill="#253786"/><path d="M170.67 47.93a2.38 2.38 0 0 1-1.81-.68 2.7 2.7 0 0 1-.63-1.91V38h2.46v6.53a1.46 1.46 0 0 0 .24 1 .9.9 0 0 0 .75.28 2.09 2.09 0 0 0 .75-.15 4.61 4.61 0 0 0 .91-.51V38h2.46v9.72h-2.09l-.14-1h-.07c-.34.23-.63.41-.88.56a6 6 0 0 1-.71.36 2.58 2.58 0 0 1-.62.19 3 3 0 0 1-.62.1z" fill="#253786"/><path d="M181.56 47.86a3.18 3.18 0 0 1-2.22-.7 2.64 2.64 0 0 1-.75-2v-5h-1.51V38h1.66l.32-2.68 2-.27v3h2v2.09h-2v4.42a1.75 1.75 0 0 0 .28 1.13 1 1 0 0 0 .83.33h.43a2.77 2.77 0 0 0 .47-.09v1.8a6 6 0 0 1-.74.13 6.78 6.78 0 0 1-.77 0z" fill="#253786"/><path d="m184.08 46.06 3.75-6V40h-3.62v-2h6.37v1.71l-3.71 5.94v.12h3.89v2h-6.68z" fill="#253786"/><path d="M4.76 92.37v22.41h216.42V92.37z" fill="#fff"/><path d="M14.64 106.86a1.49 1.49 0 0 1-1.64-1.68v-3.65h-1.2v-.84H13l.14-1.52.75-.11v1.63h1.72v.84h-1.72V105c0 .74.34 1.11 1 1.11h.35l.38-.09v.76a4.45 4.45 0 0 1-.98.08z" fill="#253786"/><path d="M18.54 106.9c-1 0-1.51-.55-1.51-1.65v-4.56H18V105a1.37 1.37 0 0 0 .19.84.87.87 0 0 0 .7.24 2.49 2.49 0 0 0 1-.2 7.84 7.84 0 0 0 1-.49v-4.68h.95v6.09H21l-.06-.71-.73.38a4.61 4.61 0 0 1-.58.25 2.74 2.74 0 0 1-.52.15 3.21 3.21 0 0 1-.57.03z" fill="#253786"/><path d="M26.26 106.89a2.51 2.51 0 0 1-2-.78 3.39 3.39 0 0 1-.68-2.28 3.74 3.74 0 0 1 .67-2.41 2.34 2.34 0 0 1 1.94-.83q2.19 0 2.19 2.7v.45a3.39 3.39 0 0 1 0 .35h-3.85a2.49 2.49 0 0 0 .49 1.54 1.67 1.67 0 0 0 1.33.49 4.32 4.32 0 0 0 .85-.09 5.28 5.28 0 0 0 .9-.25v.74a3.89 3.89 0 0 1-.91.27 5.72 5.72 0 0 1-.93.1zm-.09-5.56c-1 0-1.56.69-1.64 2.07h3a3.16 3.16 0 0 0-.35-1.59 1.09 1.09 0 0 0-1.01-.48z" fill="#253786"/><path d="M29.39 100.79v-.1h1l1.53 4.48.22.81h.11l.23-.81 1.52-4.48h1v.1l-2.16 6h-1.28z" fill="#253786"/><path d="M36.21 103.23h3.28v.77h-3.28z" fill="#253786"/><path d="M43 106.91a6 6 0 0 1-.82-.06c-.29 0-.64-.11-1.06-.2v-.77c.32.08.64.15 1 .2a4.67 4.67 0 0 0 .89.08 1.5 1.5 0 0 0 .94-.26.9.9 0 0 0 .33-.74.83.83 0 0 0-.31-.73 2.37 2.37 0 0 0-.86-.35l-.65-.16a1.85 1.85 0 0 1-.61-.26 1.28 1.28 0 0 1-.45-.5 1.79 1.79 0 0 1-.18-.87 1.6 1.6 0 0 1 .56-1.28 2.34 2.34 0 0 1 1.54-.46h.35a2.47 2.47 0 0 1 .36 0l.42.06.53.1v.78c-.36-.08-.65-.13-.88-.17a3.93 3.93 0 0 0-.65-.06 1.6 1.6 0 0 0-1 .25.84.84 0 0 0-.33.71.88.88 0 0 0 .1.45 1 1 0 0 0 .27.3 1.85 1.85 0 0 0 .4.18l.51.12a6 6 0 0 1 .71.21 2 2 0 0 1 .56.32 1.59 1.59 0 0 1 .37.51 1.83 1.83 0 0 1 .13.75 1.63 1.63 0 0 1-.56 1.32 2.37 2.37 0 0 1-1.61.53z" fill="#253786"/><path d="M48 106.84a1.53 1.53 0 0 1-1.16-.42 1.63 1.63 0 0 1-.41-1.18 1.65 1.65 0 0 1 .54-1.33 2.94 2.94 0 0 1 1.7-.56l1.34-.1v-.49a2.89 2.89 0 0 0-.07-.66 1 1 0 0 0-.24-.43.89.89 0 0 0-.44-.23 2.58 2.58 0 0 0-.68-.07 7.78 7.78 0 0 0-.78 0c-.29 0-.59.08-.9.14l-.08-.74 1-.15h.91a2.4 2.4 0 0 1 1.66.48 1.86 1.86 0 0 1 .53 1.48v4.2h-.78l-.1-.75H50a5.66 5.66 0 0 1-1 .58 2.36 2.36 0 0 1-1 .23zm.33-.74a1.51 1.51 0 0 0 .41-.06l.44-.15.43-.22.4-.25v-1.55l-1.09.1a2.54 2.54 0 0 0-1.19.35 1 1 0 0 0-.34.84.83.83 0 0 0 .96.94z" fill="#253786"/><path d="M54.15 106.84a1.54 1.54 0 0 1-1.16-.42 1.62 1.62 0 0 1-.4-1.18 1.65 1.65 0 0 1 .54-1.33 2.94 2.94 0 0 1 1.7-.56l1.33-.1v-.49a3 3 0 0 0-.06-.66 1 1 0 0 0-.24-.43.89.89 0 0 0-.44-.23 2.63 2.63 0 0 0-.68-.07 7.78 7.78 0 0 0-.78 0c-.29 0-.59.08-.9.14l-.08-.74 1-.15h.92a2.42 2.42 0 0 1 1.66.48 1.89 1.89 0 0 1 .53 1.48v4.2h-.78l-.1-.75h-.07a5.25 5.25 0 0 1-1 .58 2.37 2.37 0 0 1-.99.23zm.33-.74a1.52 1.52 0 0 0 .42-.06 3.66 3.66 0 0 0 .43-.15l.43-.22.4-.25v-1.55l-1.08.1a2.54 2.54 0 0 0-1.19.35 1 1 0 0 0-.34.84.83.83 0 0 0 .93.94z" fill="#253786"/><path d="M59.12 100.69h.79l.07.8H60c.33-.19.67-.38 1-.54a4.26 4.26 0 0 1 1-.36h.28v.93H62a4.25 4.25 0 0 0-1 .24 5.47 5.47 0 0 0-.91.43v4.59h-1z" fill="#253786"/><path d="M63.61 106.82a.61.61 0 0 1-.45-.15.55.55 0 0 1-.16-.44.53.53 0 0 1 .61-.6.63.63 0 0 1 .46.16.61.61 0 0 1 .16.44c0 .39-.23.59-.62.59z" fill="#253786"/><path d="M68.17 106.9a2.09 2.09 0 0 1-1.76-.76 3.81 3.81 0 0 1-.59-2.35 3.36 3.36 0 0 1 .77-2.4 2.78 2.78 0 0 1 2.1-.81h.64l.62.08v-3h1v9.11h-.84l-.08-.7a2.06 2.06 0 0 1-1.86.83zm.22-.76a1.92 1.92 0 0 0 .59-.09 1.51 1.51 0 0 0 .5-.27 1.44 1.44 0 0 0 .34-.43 1.17 1.17 0 0 0 .13-.57v-3.34a6 6 0 0 0-1.29-.13 1.7 1.7 0 0 0-1.4.57 3 3 0 0 0-.47 1.86 3.22 3.22 0 0 0 .4 1.83 1.35 1.35 0 0 0 1.2.57z" fill="#253786"/><path d="M75.33 106.89a2.51 2.51 0 0 1-2-.78 3.39 3.39 0 0 1-.67-2.28 3.8 3.8 0 0 1 .66-2.41 2.36 2.36 0 0 1 1.94-.83q2.19 0 2.19 2.7a3.1 3.1 0 0 1 0 .45v.35H73.6a2.49 2.49 0 0 0 .5 1.54 1.65 1.65 0 0 0 1.32.49 4.24 4.24 0 0 0 .85-.09 5 5 0 0 0 .9-.25l.06.74a4.12 4.12 0 0 1-.92.27 5.62 5.62 0 0 1-.98.1zm-.09-5.56c-1 0-1.56.69-1.64 2.07h3a3.29 3.29 0 0 0-.34-1.59 1.11 1.11 0 0 0-1.02-.48z" fill="#253786"/><path d="M81.17 98.44H82l-2.45 9.71h-.84z" fill="#253786"/><path d="M85.48 99.26H83v-.82h6v.82h-2.5v7.52h-1z" fill="#253786"/><path d="M90.53 98.44h1v3.68h1.38l2.51-3.68h1.1l-2.57 3.74-.37.28v.07l.4.27 2.74 4h-1.14l-2.65-3.8h-1.45v3.83h-1z" fill="#253786"/><path d="M97.26 104.26v-.07l2.79-5.87.86.13v.09L98.3 104h2.76l.27-2.86h.67V104h1.11v.77H102v2h-1v-2h-3.54z" fill="#253786"/><path d="M104.12 104.26v-.07l2.79-5.87.86.13v.09l-2.61 5.46h2.76l.27-2.86h.68V104H110v.77h-1.11v2h-1v-2h-3.59z" fill="#253786"/><path d="M111 104.26v-.07l2.79-5.87.86.13v.09L112 104h2.76l.27-2.86h.68V104h1.1v.77h-1.1v2h-1v-2h-3.59z" fill="#253786"/><path d="M117.84 104.26v-.07l2.78-5.87h.06l.86.13v.09l-2.66 5.46h2.76l.27-2.86h.68V104h1.1v.77h-1.1v2h-1v-2H118z" fill="#253786"/><path d="M127.7 106.83a3.15 3.15 0 0 1-2-.55 1.93 1.93 0 0 1-.7-1.61 2.26 2.26 0 0 1 .13-.81 2.67 2.67 0 0 1 .33-.63 2.27 2.27 0 0 1 .47-.46 4 4 0 0 1 .52-.32 2.34 2.34 0 0 1-.87-.74 2.47 2.47 0 0 1-.15-2.16 1.87 1.87 0 0 1 .5-.67 2.43 2.43 0 0 1 .78-.42 3.64 3.64 0 0 1 1-.14 2.67 2.67 0 0 1 1.76.55 2 2 0 0 1 .66 1.6 2.45 2.45 0 0 1-.11.74 2.06 2.06 0 0 1-.27.58 2.28 2.28 0 0 1-.4.42 2.79 2.79 0 0 1-.47.32 3.91 3.91 0 0 1 .61.32 2.43 2.43 0 0 1 .47.43 1.74 1.74 0 0 1 .31.57 2.2 2.2 0 0 1 .12.76 2 2 0 0 1-.72 1.64 3 3 0 0 1-1.97.58zm-.51-4.07a3.89 3.89 0 0 0-.44.24 1.79 1.79 0 0 0-.41.37 1.62 1.62 0 0 0-.31.51 1.87 1.87 0 0 0-.11.7 1.39 1.39 0 0 0 .48 1.15 2 2 0 0 0 1.3.39 2.09 2.09 0 0 0 1.3-.38 1.28 1.28 0 0 0 .49-1.09 1.53 1.53 0 0 0-.13-.68 1.29 1.29 0 0 0-.39-.48 1.92 1.92 0 0 0-.6-.34 6.09 6.09 0 0 0-.76-.27zm-1.06-2.26a1.51 1.51 0 0 0 .14.67 1.35 1.35 0 0 0 .4.46 2 2 0 0 0 .6.34 6.3 6.3 0 0 0 .77.26h.08a2.92 2.92 0 0 0 .4-.25 1.8 1.8 0 0 0 .37-.36 1.69 1.69 0 0 0 .28-.49 1.84 1.84 0 0 0 .11-.65 1.32 1.32 0 0 0-.44-1.08 1.73 1.73 0 0 0-1.14-.36 1.69 1.69 0 0 0-1.14.36 1.35 1.35 0 0 0-.43 1.1z" fill="#253786"/><rect x="4.76" y="4.76" width="82.86" height="82.86" fill="#3b368b"/><polygon points="70.74 58.35 81.24 15.19 73.2 15.19 67.25 41.92 64.73 31.33 56.53 31.33 63.59 58.35 70.74 58.35" fill="#fff"/><polygon points="19.84 58.51 28.31 58.51 28.31 29.67 33.25 29.67 33.25 20.72 14.29 20.72 14.29 29.76 19.84 29.76 19.84 58.51" fill="#fff"/><rect x="35.05" y="20.72" width="8.39" height="8.95" fill="#fff"/><rect x="46.83" y="20.72" width="8.39" height="8.95" fill="#fff"/><path d="M42.66 58.53h12.56v-27.2h-8.47v18.94H45.2c-1.46 0-1.74-.77-1.74-1.74v-17.2H35v18.85c0 6.18 3 8.35 7.66 8.35z" fill="#fff"/><path d="m24.68 62.84-2.29 12.45h2.07l.38-2.76h2.34l.38 2.76h2.08l-2.3-12.45zm.47 7.83.85-5.35.84 5.35z" fill="#fff"/><path d="m56 62.84-2.28 12.45h2.07l.38-2.76h2.34l.38 2.76H61l-2.33-12.45zm.47 7.83.84-5.35.84 5.35z" fill="#fff"/><polygon points="49.47 62.84 47.33 62.84 47.33 75.29 52.83 75.29 52.83 73.43 49.47 73.43 49.47 62.84" fill="#fff"/><path d="M73.63 62.84h-3.18v12.45h3.18c2.21 0 3.38-1.2 3.38-3.76V66.6c-.01-2.6-1.17-3.76-3.38-3.76zm1.24 9c0 1.31-.4 1.74-1.53 1.74h-.75V64.6h.75c1.13 0 1.53.43 1.53 1.74z" fill="#fff"/><path d="M17.23 65.75c0-.77.38-1.22 1.07-1.22.48 0 1.05.31 1.14 1.38l2-.23c-.19-1.76-1.23-3-3-3-2.11 0-3.31 1.12-3.31 3.11 0 3.57 4.34 4.23 4.34 6.69a1.1 1.1 0 0 1-1.17 1.12c-.69 0-1.19-.62-1.27-1.88L15 72c.09 1.86 1.22 3.45 3.21 3.45a3.05 3.05 0 0 0 3.38-3.2c-.01-3.36-4.36-4.38-4.36-6.5z" fill="#fff"/><path d="M45.61 66.51c0-2.66-1.22-3.67-3.62-3.67H39v12.45h2.14v-5.1a8.77 8.77 0 0 0 1.1-.06l1.52 5.16h2.18l-1.82-5.64c.72-.33 1.49-1.14 1.49-3.14zm-3.72 1.92h-.76V64.6h.76c1.15 0 1.58.43 1.58 1.91s-.47 1.92-1.58 1.92z" fill="#fff"/><path d="M32.79 62.84 30.5 75.29h2.07l.43-2.76h2.34l.38 2.76h2.07l-2.34-12.45zm.47 7.83.84-5.35.9 5.35z" fill="#fff"/><polygon points="66.83 69.96 66.8 69.96 64.19 62.84 62.21 62.84 62.21 75.29 64.14 75.29 64.14 67.51 64.18 67.51 66.9 75.29 68.77 75.29 68.77 62.84 66.83 62.84 66.83 69.96" fill="#fff"/><path d="M99.77 75.92h-.59c-.21 0-.43 0-.64-.09l-.63-.13c-.2 0-.38-.11-.55-.17l.09-.81a2.18 2.18 0 0 0 .44.16 4.93 4.93 0 0 0 .58.13c.2 0 .41.07.61.09a4 4 0 0 0 .57 0 1.93 1.93 0 0 0 1.36-.43 1.6 1.6 0 0 0 .48-1.24 1.46 1.46 0 0 0-.46-1.13 4.75 4.75 0 0 0-1.42-.81 9.29 9.29 0 0 1-.94-.45 2.65 2.65 0 0 1-.65-.52 1.78 1.78 0 0 1-.39-.68 2.75 2.75 0 0 1-.13-.9 2.84 2.84 0 0 1 .18-1 2.22 2.22 0 0 1 .54-.8 2.5 2.5 0 0 1 .84-.5 3.21 3.21 0 0 1 1.1-.18 7.22 7.22 0 0 1 .92.06 9.43 9.43 0 0 1 1 .2l-.06.79a7.76 7.76 0 0 0-1-.19 6.17 6.17 0 0 0-.8-.06 1.8 1.8 0 0 0-1.3.47 1.65 1.65 0 0 0-.49 1.27 1.5 1.5 0 0 0 .1.58 1.37 1.37 0 0 0 .33.45 2.58 2.58 0 0 0 .57.39 5.2 5.2 0 0 0 .81.37 7.94 7.94 0 0 1 1 .49 2.66 2.66 0 0 1 .67.56 1.86 1.86 0 0 1 .39.7 2.88 2.88 0 0 1 .13.92 2.39 2.39 0 0 1-.7 1.84 2.65 2.65 0 0 1-1.96.62z" fill="#253786"/><path d="M104.28 78.3v-.06l.85-2.5-2.27-6.62v-.06h.91L105.4 74l.16.75h.06l.18-.75 1.61-4.94h.92v.06l-3.14 9.37z" fill="#253786"/><path d="M110.67 75.89a4.93 4.93 0 0 1-.75-.06c-.26 0-.57-.11-1-.2v-.75a4.57 4.57 0 0 0 .83.2 4.75 4.75 0 0 0 .81.07 1.25 1.25 0 0 0 .9-.3 1.36 1.36 0 0 0 .07-1.66 1.52 1.52 0 0 0-.81-.44l-.6-.16a1.6 1.6 0 0 1-.56-.3 1.56 1.56 0 0 1-.41-.55 2.19 2.19 0 0 1-.16-.93 1.83 1.83 0 0 1 .52-1.4 1.94 1.94 0 0 1 1.44-.5 4.82 4.82 0 0 1 .65 0 8.22 8.22 0 0 1 .82.16v.75c-.32-.08-.57-.13-.77-.16a5.28 5.28 0 0 0-.55 0 1.32 1.32 0 0 0-.92.3 1 1 0 0 0-.34.81 1.12 1.12 0 0 0 .1.52 1 1 0 0 0 .24.33 1.27 1.27 0 0 0 .36.2l.46.18a5.14 5.14 0 0 1 .7.26 1.89 1.89 0 0 1 .53.38 1.54 1.54 0 0 1 .33.54 2.32 2.32 0 0 1 .12.8 1.87 1.87 0 0 1-.55 1.42 2.08 2.08 0 0 1-1.46.49z" fill="#253786"/><path d="M116.3 75.82c-1.14 0-1.7-.6-1.7-1.79v-4.17h-1.21v-.8h1.24l.13-1.67.73-.13v1.8h1.7v.8h-1.7v4a1.32 1.32 0 0 0 .26.9.92.92 0 0 0 .74.29 2 2 0 0 0 .33 0 1.61 1.61 0 0 0 .33-.06v.74a4.12 4.12 0 0 1-.85.09z" fill="#253786"/><path d="M120.54 75.87a2.28 2.28 0 0 1-1.92-.86 4 4 0 0 1-.67-2.48 4.6 4.6 0 0 1 .64-2.67 2.19 2.19 0 0 1 1.91-.86 1.76 1.76 0 0 1 1.54.73 3.66 3.66 0 0 1 .52 2.16v.91h-3.65a3.21 3.21 0 0 0 .48 1.78 1.42 1.42 0 0 0 1.24.58 4.23 4.23 0 0 0 .79-.08 4.43 4.43 0 0 0 .86-.3l.06.75a3.67 3.67 0 0 1-.83.28 4.13 4.13 0 0 1-.97.06zm-.06-6.18a1.31 1.31 0 0 0-1.14.59 3.51 3.51 0 0 0-.46 1.77h2.83a4 4 0 0 0-.3-1.81 1 1 0 0 0-.93-.55z" fill="#253786"/><path d="M123.89 69.06h.74l.08.72a3.74 3.74 0 0 1 2.11-.85 1.51 1.51 0 0 1 .85.21 1.13 1.13 0 0 1 .44.65h.06a5.34 5.34 0 0 1 1.12-.65 2.65 2.65 0 0 1 1-.21 1.33 1.33 0 0 1 1.09.41 2.18 2.18 0 0 1 .33 1.35v5.07h-.88v-4.85a1.45 1.45 0 0 0-.21-.89.74.74 0 0 0-.64-.27 2.46 2.46 0 0 0-.84.17 5.26 5.26 0 0 0-.92.5v5.34h-.88v-4.85a1.54 1.54 0 0 0-.2-.89.76.76 0 0 0-.64-.27 3.09 3.09 0 0 0-1.77.67v5.34h-.89z" fill="#253786"/><path d="M133.4 69.06h.82l.06.67h.05A2.15 2.15 0 0 1 136 69a1.75 1.75 0 0 1 1.6.83 4.59 4.59 0 0 1 .54 2.48 6.23 6.23 0 0 1-.15 1.39 3.23 3.23 0 0 1-.49 1.15 2.43 2.43 0 0 1-.89.79 2.86 2.86 0 0 1-1.34.29 5.07 5.07 0 0 1-1-.11v2.72h-.9zm1.91 6.13a1.65 1.65 0 0 0 1.44-.7 3.93 3.93 0 0 0 .47-2.16 4.31 4.31 0 0 0-.36-2 1.19 1.19 0 0 0-1.11-.65 1.61 1.61 0 0 0-.53.1 1.72 1.72 0 0 0-.47.28 1.43 1.43 0 0 0-.32.44 1.32 1.32 0 0 0-.13.6v4a4.91 4.91 0 0 0 1.01.09z" fill="#253786"/><path d="M139.53 69.06h.78l.06.8h.06a3.46 3.46 0 0 1 .77-.48 5.66 5.66 0 0 1 1.08-.43h.21v1h-.36a4.58 4.58 0 0 0-1 .26 2.62 2.62 0 0 0-.73.39v5.21h-.9z" fill="#253786"/><path d="M145.05 75.88a1.52 1.52 0 0 1-1.19-.42 1.93 1.93 0 0 1-.39-1.34v-5.06h.91v4.86a1.39 1.39 0 0 0 .2.88.82.82 0 0 0 .69.25 2 2 0 0 0 .8-.17 5.09 5.09 0 0 0 .94-.56v-5.26h.91v6.7h-.77l-.08-.71a6.11 6.11 0 0 1-1.08.64 2.26 2.26 0 0 1-.94.19zm-.5-7.93a.47.47 0 0 1-.54-.53c0-.35.18-.52.54-.52a.62.62 0 0 1 .4.12.61.61 0 0 1 0 .8.57.57 0 0 1-.4.18zm2.27 0a.47.47 0 0 1-.54-.53c0-.35.18-.52.54-.52a.57.57 0 0 1 .39.12.53.53 0 0 1-.39.93z" fill="#253786"/><path d="M149.94 69.84H149v-.78h.93v-.49a5.93 5.93 0 0 1 .12-1.3 2 2 0 0 1 .39-.85 1.6 1.6 0 0 1 .73-.49 4.7 4.7 0 0 1 1.15-.22v.73a3.35 3.35 0 0 0-.76.16 1 1 0 0 0-.46.35 1.56 1.56 0 0 0-.24.61 6.11 6.11 0 0 0-.07 1v.54h1.25v.78h-1.25v5.92h-.9z" fill="#253786"/><path d="M154.65 75.88a1.55 1.55 0 0 1-1.19-.42 2 2 0 0 1-.38-1.34v-5.06h.9v4.86a1.46 1.46 0 0 0 .2.88.84.84 0 0 0 .7.25 2.05 2.05 0 0 0 .8-.17 5.06 5.06 0 0 0 .93-.56v-5.26h.91v6.7h-.77l-.07-.71h-.05a6.52 6.52 0 0 1-1.09.64 2.23 2.23 0 0 1-.89.19z" fill="#253786"/><path d="M159.2 69.06h.8l.06.72h.05a5.66 5.66 0 0 1 1.14-.64 2.58 2.58 0 0 1 1-.21 1.35 1.35 0 0 1 1.1.41 2.18 2.18 0 0 1 .33 1.35v5.07h-.91v-4.85a1.48 1.48 0 0 0-.2-.9.75.75 0 0 0-.63-.26 2.32 2.32 0 0 0-.85.18 4.76 4.76 0 0 0-1 .52v5.31h-.9z" fill="#253786"/><path d="M167.18 78.49a4.8 4.8 0 0 1-1.64-.29l.07-.75a5.74 5.74 0 0 0 .78.21 3.38 3.38 0 0 0 .72.07 1.52 1.52 0 0 0 1.33-.56 3.41 3.41 0 0 0 .42-1.88V75h-.05a1.92 1.92 0 0 1-1.62.77 1.85 1.85 0 0 1-1.66-.81 4.59 4.59 0 0 1-.54-2.5 4.06 4.06 0 0 1 .73-2.61 2.48 2.48 0 0 1 2.08-.85 7.16 7.16 0 0 1 1 .06 8.88 8.88 0 0 1 1 .22V75a4.48 4.48 0 0 1-.62 2.66 2.23 2.23 0 0 1-2 .83zm.19-3.4a1.4 1.4 0 0 0 .54-.1 1.42 1.42 0 0 0 .48-.27 1.38 1.38 0 0 0 .32-.43 1.12 1.12 0 0 0 .13-.55v-4l-.58-.11a3.64 3.64 0 0 0-.48 0c-1.23 0-1.85.92-1.85 2.75s.48 2.71 1.44 2.71z" fill="#253786"/></svg>