<svg width="298px" height="185px" viewBox="0 0 298 185" xmlns="http://www.w3.org/2000/svg"><g id="TSVC-5704" stroke="none" stroke-width="1" fill="none" fill-rule="evenodd"><polygon id="Fill-1" fill="#6F8F9D" points="1.854 140.562 295.694 140.562 295.694 2.585 1.854 2.585"/><polygon id="Fill-2" fill="#FFFFFE" points="98.423 107.293 291.137 107.293 291.137 6.959 98.423 6.959"/><polygon id="Fill-3" fill="#D91E47" points="6.413 136.187 93.865 136.187 93.865 6.96 6.413 6.96"/><path d="M22.559 130.744c.62-.82 1.68-1.28 2.54-1.58l1.62-.5c3.82-1.18 5.98-2.06 5.98-4.82 0-2.24-1.76-4.62-6.8-4.62-3.8 0-7.02 1.24-7.2 5.22h4c.22-1.98 1.78-2.62 3.34-2.62 1.68 0 2.66.8 2.66 1.96 0 3.42-10 1.36-10.36 9.68h14.28v-2.72h-10.06Zm15.86-4.22c0-2.5.9-4.7 3.56-4.7s3.56 2.2 3.56 4.7-.9 4.7-3.56 4.7-3.56-2.2-3.56-4.7Zm-3.76 0c0 4.66 2.64 7.3 7.32 7.3 4.88 0 7.32-2.92 7.32-7.3 0-4.66-2.64-7.3-7.32-7.3s-7.32 2.64-7.32 7.3Zm20.54 4.22c.62-.82 1.68-1.28 2.54-1.58l1.62-.5c3.82-1.18 5.98-2.06 5.98-4.82 0-2.24-1.76-4.62-6.8-4.62-3.8 0-7.02 1.24-7.2 5.22h4c.22-1.98 1.78-2.62 3.34-2.62 1.68 0 2.66.8 2.66 1.96 0 3.42-10 1.36-10.36 9.68h14.28v-2.72h-10.06Zm16.32 0c.62-.82 1.68-1.28 2.54-1.58l1.62-.5c3.82-1.18 5.98-2.06 5.98-4.82 0-2.24-1.76-4.62-6.8-4.62-3.8 0-7.02 1.24-7.2 5.22h4c.22-1.98 1.78-2.62 3.34-2.62 1.68 0 2.66.8 2.66 1.96 0 3.42-10 1.36-10.36 9.68h14.28v-2.72h-10.06Z" id="Fill-4" fill="#FFFFFE"/><path d="M10.766 33.24c.108 1.523 1.343 2.231 3.779 2.231 1.837 0 3.972-.264 3.972-2.171 0-1.117-.696-1.753-2.843-1.981l-1.465-.156c-.912-.096-1.068-.3-1.068-.6 0-.636.828-.684 1.38-.684.613 0 1.309.192 1.429.852h2.327c-.144-1.2-.84-2.171-3.804-2.171-1.752 0-3.515.42-3.515 2.159 0 1.224.768 1.644 2.111 1.824l1.921.265c1.02.144 1.2.288 1.2.648 0 .468-.564.696-1.525.696-1.092 0-1.476-.36-1.572-.912h-2.327Zm14.232 1.991h2.039V28.8h-2.111v3.216c0 1.188-.648 1.824-1.789 1.824-.972 0-1.44-.432-1.44-1.32V28.8h-2.111v4.356c0 1.895 1.667 2.315 2.759 2.315 1.236 0 2.245-.564 2.629-1.103h.024v.863Zm3.48 0h2.111v-8.71h-2.111v8.71Zm4.236-6.431h-1.332v1.415h1.332v3.253c0 1.163.192 1.907 2.194 1.907.468 0 1.26-.072 1.656-.12V33.84c-.336.024-.66.048-1.032.048-.552 0-.708-.168-.708-.672v-3.001h1.704V28.8h-1.704v-1.992h-2.11V28.8Zm10.104 3.827c0 1.081-1.189 1.597-2.257 1.597-.793 0-1.333-.324-1.333-.901 0-.576.372-.78 1.117-.84l1.224-.108c.42-.036.853-.084 1.249-.276v.528Zm-3.398-1.86c.3-.888.769-.96 1.669-.96 1.224 0 1.657.252 1.657.768 0 .517-.216.625-.865.673l-2.245.156c-1.283.084-2.662.42-2.662 1.979 0 1.5 1.175 2.088 2.854 2.088.949 0 2.293-.204 3.014-.923.012.227.072.455.144.683h2.11c-.144-.324-.24-.731-.24-1.295v-3.193c0-1.2-.647-2.183-3.671-2.183-1.729 0-3.552.228-3.804 2.207h2.039Zm7.514-1.967h-1.332v1.415h1.332v3.253c0 1.163.192 1.907 2.194 1.907.468 0 1.26-.072 1.656-.12V33.84c-.336.024-.66.048-1.032.048-.552 0-.708-.168-.708-.672v-3.001h1.704V28.8h-1.704v-1.992h-2.11V28.8Zm4.644 6.431h2.111v-6.43h-2.111v6.43Zm0-7.224h2.111V26.52h-2.111v1.487Zm3.251 4.008c0 2.425 1.703 3.456 4.248 3.456 2.544 0 4.247-1.031 4.247-3.456 0-2.424-1.703-3.455-4.247-3.455-2.545 0-4.248 1.031-4.248 3.455Zm2.183 0c0-1.26.756-1.968 2.065-1.968 1.308 0 2.064.708 2.064 1.968 0 1.261-.756 1.969-2.064 1.969-1.309 0-2.065-.708-2.065-1.969Zm12.793 3.216h2.111v-4.284c0-1.895-1.667-2.315-2.759-2.315-1.237 0-2.245.564-2.629 1.103h-.024V28.8h-2.039v6.431h2.111v-3.108c0-1.368.828-1.86 1.813-1.86.948 0 1.416.432 1.416 1.32v3.648Z" id="Fill-5" fill="#6F8F9D"/><path d="M13.958 23.231h2.471l3.804-8.567h-2.556l-2.484 6.528-2.483-6.528h-2.556l3.804 8.567Zm6.516 0h2.111v-6.43h-2.111v6.43Zm0-7.224h2.111V14.52h-2.111v1.487Zm5.434 4.044c0-1.224.925-1.86 1.993-1.86 1.057 0 1.981.636 1.981 1.86 0 1.225-.924 1.861-1.981 1.861-1.068 0-1.993-.636-1.993-1.861Zm3.974 3.18h2.038V14.52h-2.11v3.071h-.024c-.408-.575-1.285-.959-2.473-.959-2.028 0-3.587 1.367-3.587 3.455 0 2.245 1.583 3.384 3.587 3.384.96 0 1.861-.216 2.545-1.043h.024v.803Zm9.12-1.92c-.3.553-.9.841-1.753.841-1.44 0-2.065-.937-2.065-1.549v-.024h6.192v-.192c0-2.424-1.343-3.827-4.127-3.827-2.544 0-4.247 1.031-4.247 3.455 0 2.425 1.703 3.456 4.247 3.456 1.933 0 3.396-.636 4.008-2.16h-2.255Zm-3.818-1.979v-.024c0-.156.349-1.429 2.017-1.429 1.549 0 1.993 1.081 1.993 1.429v.024h-4.01Zm6.974.683c0 2.425 1.703 3.456 4.247 3.456 2.545 0 4.247-1.031 4.247-3.456 0-2.424-1.702-3.455-4.247-3.455-2.544 0-4.247 1.031-4.247 3.455Zm2.182 0c0-1.26.757-1.968 2.065-1.968 1.309 0 2.065.708 2.065 1.968 0 1.261-.756 1.969-2.065 1.969-1.308 0-2.065-.708-2.065-1.969Zm21.732-2.112c-.348-2.951-2.976-3.479-5.04-3.479-3.119 0-5.062 1.343-5.062 4.523 0 3.181 1.943 4.524 5.062 4.524 2.724 0 4.776-1.031 5.064-3.527h-2.532c-.228 1.356-1.32 1.896-2.448 1.896-2.208 0-2.676-1.728-2.676-2.893 0-1.164.468-2.892 2.676-2.892 1.212 0 2.232.612 2.448 1.848h2.508Zm.746 2.112c0 2.425 1.703 3.456 4.247 3.456 2.545 0 4.247-1.031 4.247-3.456 0-2.424-1.702-3.455-4.247-3.455-2.544 0-4.247 1.031-4.247 3.455Zm2.182 0c0-1.26.757-1.968 2.065-1.968 1.308 0 2.065.708 2.065 1.968 0 1.261-.757 1.969-2.065 1.969-1.308 0-2.065-.708-2.065-1.969Zm12.794 3.216h2.11v-4.284c0-1.895-1.666-2.315-2.758-2.315-1.237 0-2.245.564-2.63 1.103h-.024V16.8h-2.038v6.431h2.11v-3.108c0-1.368.829-1.86 1.813-1.86.949 0 1.417.432 1.417 1.32v3.648Zm3.576-2.616h4.283v-1.631H85.37v1.631Z" id="Fill-6" fill="#6F8F9D"/><path d="M1.909 178.365c0 3.009 2.124 5.039 4.499 5.039 2.377 0 4.5-2.03 4.5-5.039 0-3.01-2.123-5.039-4.5-5.039-2.375 0-4.499 2.029-4.499 5.039Zm7.992 0c0 2.285-1.56 3.992-3.493 3.992-1.955 0-3.492-1.707-3.492-3.992s1.537-3.993 3.492-3.993c1.933 0 3.493 1.708 3.493 3.993Zm-2.16.874c-.084.699-.564 1.089-1.177 1.089-.936 0-1.512-.888-1.512-1.99 0-1.143.516-1.99 1.464-1.99.625 0 1.105.417 1.225 1.035h.972c-.168-1.344-1.068-2.082-2.173-2.082-1.548 0-2.495 1.302-2.495 3.037 0 1.707 1.007 3.036 2.531 3.036 1.069 0 1.969-.791 2.173-2.135H7.741Zm12.513 3.923h1.27v-8.36h3.24v-1.234h-7.75v1.234h3.24v8.36Zm5.424-3.627c0 2.567 1.27 3.869 3.875 3.869s3.875-1.302 3.875-3.869v-5.967h-1.27v6.142c0 1.733-1.033 2.459-2.605 2.459-1.573 0-2.605-.726-2.605-2.459v-6.142h-1.27v5.967Zm1.836-6.722h1.198v-1.396h-1.198v1.396Zm2.878 0h1.2v-1.396h-1.2v1.396Zm8.329 8.872-3.084-8.117h-1.439l3.815 9.594h1.356l3.755-9.594h-1.368l-3.035 8.117Zm5.004 1.477h1.199v-7.041h-1.199v7.041Zm0-8.198h1.199v-1.477h-1.199v1.477Zm5.184 8.198h1.271v-8.36h3.24v-1.234h-7.751v1.234h3.24v8.36Zm10.317-3.172h5.999v-1.127h-5.999v1.127Zm15.044 3.172h1.27v-8.36h3.24v-1.234h-7.75v1.234h3.24v8.36Zm5.424-3.627c0 2.567 1.27 3.869 3.875 3.869s3.875-1.302 3.875-3.869v-5.967h-1.27v6.142c0 1.733-1.032 2.459-2.605 2.459-1.572 0-2.605-.726-2.605-2.459v-6.142h-1.27v5.967Zm1.836-6.722h1.198v-1.396H81.53v1.396Zm2.878 0h1.2v-1.396h-1.2v1.396Zm8.329 8.872-3.083-8.117h-1.44l3.815 9.594h1.356l3.755-9.594h-1.368l-3.035 8.117Zm17.841 1.477h1.474v-9.594h-1.27v7.633h-.024l-5.51-7.633h-1.474v9.594h1.27v-7.634h.024l5.51 7.634Zm2.904-4.797c0 2.46 1.318 5.039 4.763 5.039s4.763-2.579 4.763-5.039c0-2.46-1.318-5.039-4.763-5.039s-4.763 2.579-4.763 5.039Zm8.256 0c0 2.54-1.537 3.804-3.493 3.804s-3.493-1.264-3.493-3.804c0-2.541 1.537-3.805 3.493-3.805s3.493 1.264 3.493 3.805Zm2.7 4.797h1.27v-4.072h3.325c1.057 0 1.573.524 1.657 2.244.06 1.156.06 1.559.263 1.828h1.343c-.288-.376-.336-.82-.408-2.607-.048-1.129-.491-1.922-1.246-2.042v-.027c.935-.336 1.438-1.196 1.438-2.366 0-1.224-.623-2.552-2.339-2.552h-5.303v9.594Zm1.27-5.307v-3.053h3.589c1.021 0 1.513.619 1.513 1.533 0 .673-.3 1.52-1.549 1.52h-3.553Zm7.79 5.307h4.415c2.628 0 3.671-2.256 3.671-4.932 0-2.782-1.174-4.662-3.743-4.662h-4.343v9.594Zm1.27-1.235v-7.125h2.845c2.209 0 2.701 1.761 2.701 3.455 0 1.707-.372 3.67-2.461 3.67h-3.085Zm18.765-2.703h2.809c-.132 1.708-1.344 2.945-3.205 2.945-1.788 0-3.337-1.049-3.337-3.764 0-2.043 1.009-3.845 3.277-3.845 1.621 0 2.509.7 2.905 2.031h1.343c-.54-2.648-2.543-3.265-4.308-3.265-2.22 0-4.487 1.49-4.487 5.2 0 2.11 1.091 4.878 4.523 4.878 1.813 0 2.725-.873 3.289-1.611l.216 1.369h.91v-5.173h-3.935v1.235Zm5.797 3.938h1.27v-4.072h3.325c1.057 0 1.573.524 1.657 2.244.06 1.156.06 1.559.264 1.828h1.342c-.288-.376-.336-.82-.408-2.607-.048-1.129-.491-1.922-1.246-2.042v-.027c.935-.336 1.438-1.196 1.438-2.366 0-1.224-.623-2.552-2.339-2.552h-5.303v9.594Zm1.27-5.307v-3.053h3.589c1.021 0 1.513.619 1.513 1.533 0 .673-.3 1.52-1.549 1.52H160.6Zm7.322.51c0 2.46 1.318 5.039 4.763 5.039s4.763-2.579 4.763-5.039c0-2.46-1.318-5.039-4.763-5.039s-4.763 2.579-4.763 5.039Zm8.256 0c0 2.54-1.537 3.804-3.493 3.804s-3.493-1.264-3.493-3.804c0-2.541 1.537-3.805 3.493-3.805s3.493 1.264 3.493 3.805Zm2.628 1.17c0 2.567 1.27 3.869 3.875 3.869s3.875-1.302 3.875-3.869v-5.967h-1.27v6.142c0 1.733-1.033 2.459-2.605 2.459-1.573 0-2.605-.726-2.605-2.459v-6.142h-1.27v5.967Zm9.624 3.627h1.27v-3.844h3.229c1.8 0 2.783-1.194 2.783-2.996 0-1.788-.983-2.754-2.867-2.754h-4.415v9.594Zm1.27-5.079v-3.281h3.289c.972 0 1.453.632 1.453 1.547 0 .968-.421 1.734-1.681 1.734H189.7Zm12.214 1.907h5.998v-1.127h-5.998v1.127Zm19.495 1.507h-.024l-1.596-5.376h-1.319l-1.56 5.376h-.024l-1.74-5.376h-1.332l2.436 7.041h1.272l1.571-5.376h.024l1.572 5.376h1.308l2.484-7.041h-1.272l-1.8 5.376Zm10.884 0h-.024l-1.596-5.376h-1.32l-1.559 5.376h-.024l-1.74-5.376h-1.332l2.436 7.041h1.272l1.571-5.376h.024l1.572 5.376h1.308l2.484-7.041h-1.272l-1.8 5.376Zm10.884 0h-.024l-1.596-5.376h-1.32l-1.559 5.376h-.024l-1.74-5.376h-1.332l2.436 7.041h1.272l1.571-5.376h.024l1.572 5.376h1.308l2.484-7.041h-1.272l-1.8 5.376Zm3.781 1.665h1.487v-1.557h-1.487v1.557Zm4.008-7.041h-1.296v1.047h1.296v4.571c0 1.021.48 1.665 1.655 1.665.492 0 .936-.014 1.344-.094v-1.127a4.405 4.405 0 0 1-.828.094c-.612 0-.972-.202-.972-.767v-4.342h1.8v-1.047h-1.8v-2.164h-1.199v2.164Zm10.235 0h-1.199v4.059c0 1.384-.972 2.097-2.065 2.097-1.284 0-1.86-.592-1.86-1.627v-4.529h-1.199v4.798c0 1.76 1.127 2.485 2.639 2.485.9 0 1.897-.322 2.461-1.302h.024v1.06h1.199v-7.041Zm4.212 5.564-2.159-5.564h-1.38l2.855 7.041h1.32l2.831-7.041h-1.343l-2.124 5.564Zm4.141 1.477h1.198v-7.041h-1.198v7.041Zm0-8.198h1.198v-1.477h-1.198v1.477Zm3.192 1.157h-1.296v1.047h1.296v4.571c0 1.021.479 1.665 1.654 1.665.492 0 .936-.014 1.344-.094v-1.127a4.405 4.405 0 0 1-.828.094c-.612 0-.972-.202-.972-.767v-4.342h1.8v-1.047h-1.8v-2.164h-1.198v2.164Zm4.44 7.041h1.486v-1.557h-1.486v1.557Zm9.036 0h1.198v-9.675h-1.198v3.614h-.024c-.481-.765-1.453-1.141-2.389-1.141-1.897 0-3.419 1.356-3.419 3.722 0 2.366 1.522 3.722 3.419 3.722.924 0 1.92-.403 2.389-1.141h.024v.899Zm-4.562-3.48c0-1.613.912-2.595 2.305-2.595 1.404 0 2.328.982 2.328 2.595 0 1.331-.696 2.595-2.328 2.595-1.621 0-2.305-1.264-2.305-2.595Zm14.004.362v-.175c0-2.916-1.752-3.99-3.408-3.99-2.448 0-3.646 1.733-3.646 3.762 0 2.03 1.198 3.763 3.646 3.763 1.236 0 2.64-.685 3.24-2.378h-1.272c-.408.995-1.344 1.251-2.028 1.251-1.068 0-2.22-.78-2.316-2.233h5.784Zm-5.748-1.047c.18-1.264 1.176-1.991 2.28-1.991 1.128 0 2.016.713 2.196 1.991h-4.476Z" id="Fill-7" fill="#6F8F9D"/><path d="M18.003 156.242c-.396-4.708-4.73-6.05-7.876-6.05-5.368 0-8.228 3.63-8.228 8.206 0 6.116 4.29 8.294 8.25 8.294 4.488 0 7.48-2.926 7.854-6.402h-2.332c-.66 3.058-2.75 4.378-5.5 4.378-4.334 0-5.94-3.058-5.94-6.028 0-4.29 2.354-6.424 6.072-6.424 3.3 0 5.016 1.848 5.368 4.026h2.332Zm16.412 4.95v-.286c0-4.774-3.212-6.534-6.248-6.534-4.488 0-6.688 2.838-6.688 6.16s2.2 6.16 6.688 6.16c2.266 0 4.84-1.122 5.94-3.894h-2.332c-.748 1.628-2.464 2.046-3.718 2.046-1.958 0-4.07-1.276-4.246-3.652h10.604Zm-10.538-1.716c.33-2.068 2.156-3.256 4.18-3.256 2.068 0 3.696 1.166 4.026 3.256h-8.206Zm14.432 6.82h2.199v-5.852c0-2.508 1.519-3.784 3.697-3.784.594 0 1.012.088 1.562.22v-2.376c-.418-.11-.704-.132-1.254-.132-1.452 0-2.926.682-3.96 2.508h-.045v-2.112h-2.199v11.528Zm11.572-11.528h-2.376v1.716h2.376v7.48c0 1.672.88 2.728 3.036 2.728.902 0 1.716-.022 2.464-.154v-1.848a8.89 8.89 0 0 1-1.518.154c-1.122 0-1.782-.33-1.782-1.254v-7.106h3.3v-1.716h-3.3v-3.542h-2.2v3.542Zm8.821 11.528h2.2v-11.528h-2.2v11.528Zm0-13.42h2.2v-2.42h-2.2v2.42Zm7.216 1.892h-2.354v1.716h2.354v9.812h2.2v-9.812h3.256v-1.716h-3.256v-1.606c0-.946.594-1.122 2.024-1.122.396 0 .814.022 1.232.044v-1.716c-.638-.066-1.232-.176-1.914-.176-2.222 0-3.542.726-3.542 2.86v1.716Zm8.294 11.528h2.2v-11.528h-2.2v11.528Zm0-13.42h2.2v-2.42h-2.2v2.42Zm15.972 9.196c-.484 1.914-1.562 2.772-3.542 2.772-2.816 0-4.07-1.848-4.07-4.312 0-2.464 1.254-4.312 4.07-4.312 2.046 0 3.234.902 3.498 2.398h2.331c-.461-2.86-2.903-4.246-5.983-4.246-4.158 0-6.248 2.816-6.248 6.226 0 2.992 1.694 6.094 6.27 6.094 2.992 0 5.082-1.166 6.006-4.62h-2.332Zm8.117-3.696c.066-1.782 1.672-2.288 3.564-2.288 1.782 0 3.322.308 3.322 1.892 0 1.034-.77 1.254-2.002 1.386l-2.508.264c-3.696.396-4.95 1.474-4.95 3.586 0 1.496.858 3.476 4.686 3.476 1.87 0 4.026-.682 4.906-1.87.154 1.298.88 1.606 1.98 1.606.528 0 1.188-.044 1.716-.132v-1.54a4.34 4.34 0 0 1-.77.088c-.682 0-.99-.308-.99-.99v-6.204c0-2.684-2.948-3.278-5.302-3.278-3.454 0-5.434 1.122-5.72 4.004h2.068Zm6.886 3.366c0 1.914-2.09 3.234-4.576 3.234-1.606 0-2.684-.748-2.684-1.826 0-1.21.902-1.672 2.618-1.892l2.486-.308c1.232-.154 1.826-.308 2.156-.682v1.474Zm7.942-6.974h-2.376v1.716h2.376v7.48c0 1.672.88 2.728 3.036 2.728.902 0 1.716-.022 2.464-.154v-1.848a8.88 8.88 0 0 1-1.518.154c-1.122 0-1.782-.33-1.782-1.254v-7.106h3.3v-1.716h-3.3v-3.542h-2.2v3.542Zm21.252 6.424v-.286c0-4.774-3.212-6.534-6.248-6.534-4.488 0-6.688 2.838-6.688 6.16s2.2 6.16 6.688 6.16c2.266 0 4.84-1.122 5.94-3.894h-2.332c-.748 1.628-2.464 2.046-3.718 2.046-1.958 0-4.07-1.276-4.246-3.652h10.604Zm-10.538-1.716c.33-2.068 2.156-3.256 4.18-3.256 2.068 0 3.696 1.166 4.026 3.256h-8.206Zm24.953 6.82h2.332v-15.708h-2.332v15.708Zm7.568 0h8.096c4.818 0 6.732-3.696 6.732-8.074 0-4.554-2.156-7.634-6.864-7.634h-7.964v15.708Zm2.332-2.024v-11.66h5.214c4.048 0 4.95 2.882 4.95 5.654 0 2.794-.682 6.006-4.51 6.006h-5.654Zm17.446-6.754h2.728v-2.552h-2.728v2.552Zm0 8.778h2.728v-2.552h-2.728v2.552Zm18.111-7.018 2.112.132c.88-1.078 2.266-1.452 3.652-1.452 2.134 0 3.85 1.012 3.85 3.344 0 2.75-1.958 3.498-3.916 3.498-2.332 0-3.454-.726-3.916-2.596h-2.266c.132 2.508 2.442 4.444 6.006 4.444 3.982 0 6.424-2.156 6.424-5.434 0-3.96-3.278-5.104-5.874-5.104-1.386 0-2.662.352-3.762 1.1l.748-4.158h7.744v-2.024h-9.394l-1.408 8.25Zm15.268-6.094h9.68c-3.058 3.52-5.654 8.272-6.864 13.112h2.442c1.144-5.236 3.3-9.174 6.6-13.332v-1.936h-11.858v2.156Zm15.312 5.478c0 4.378 1.518 7.986 6.358 7.986s6.358-3.608 6.358-7.986-1.518-7.986-6.358-7.986-6.358 3.608-6.358 7.986Zm10.384 0c0 1.826-.264 6.138-4.026 6.138-3.762 0-4.026-4.312-4.026-6.138 0-1.826.264-6.138 4.026-6.138 3.762 0 4.026 4.312 4.026 6.138Zm13.794 2.068h-5.83l5.786-7.062h.044v7.062Zm0 5.566h2.2v-3.718h2.684v-1.848h-2.684v-10.142h-1.936l-8.294 9.966v2.024h8.03v3.718Zm9.834 0h2.728v-2.552h-2.728v2.552Zm9.9-10.098c.066-2.156 1.232-3.674 3.982-3.674 1.782 0 3.3.814 3.3 3.036 0 4.466-9.328 3.586-9.768 10.736h12.1v-2.024h-9.262c1.782-3.542 9.262-3.322 9.262-8.69 0-2.794-1.804-4.906-5.764-4.906-4.202 0-6.05 2.288-6.05 5.522h2.2Zm16.346 0c.066-2.156 1.232-3.674 3.982-3.674 1.782 0 3.3.814 3.3 3.036 0 4.466-9.328 3.586-9.768 10.736h12.1v-2.024h-9.262c1.782-3.542 9.262-3.322 9.262-8.69 0-2.794-1.804-4.906-5.764-4.906-4.202 0-6.05 2.288-6.05 5.522h2.2Z" id="Fill-8" fill="#6F8F9D"/><polyline id="Fill-9" fill="#1A1919" points="120.414 38.484 160.348 38.484 157.562 50.183 141.31 50.183 134.963 77.428 122.271 77.428 129.081 50.183 117.318 50.183 120.414 38.484"/><polyline id="Fill-10" fill="#1A1919" points="207.267 38.452 188.983 77.428 176.91 77.428 173.66 50.183 161.896 50.183 164.682 38.484 183.721 38.484 185.269 60.761 194.246 38.484 207.267 38.452"/><path d="m145.798 51.786-3.405 13.783s-1.703 6.41 1.393 9.776c2.941 3.365 6.037 3.686 10.216 3.846 4.179.32 8.977-1.763 11.144-4.007 2.168-2.083 3.715-5.288 4.025-6.891.309-1.603 3.56-16.507 3.56-16.507h-11.299l-3.096 13.783s-.31 1.442-1.084 1.923c-.928.641-2.167.481-2.167.481s-.928-.161-1.238-.802c-.309-.481-.155-1.602-.155-1.602l3.406-13.783h-11.3" id="Fill-11" fill="#1A1919"/><polyline id="Fill-12" fill="#1A1919" points="222.388 38.491 250.894 38.491 248.108 50.19 236.918 50.19 230.571 77.434 217.879 77.434 224.69 50.19 219.481 50.19 222.388 38.491"/><path d="M217.427 51.775 211.44 77.47h-12.692s6.423-25.694 6.443-25.694l12.236-.001" id="Fill-13" fill="#1A1919"/><g id="Group-17" transform="translate(192.315909, 13.755896)" fill="#D91E47"><polyline id="Fill-14" points="28.410091 24.6931039 25.557091 36.4251039 13.350091 36.4251039 16.182091 24.6931039 28.410091 24.6931039"/><path d="M38.937 10.505C58.963-2.793 72.722-1.58 77.157 6.94c6.868 13.194-.855 38.733-22.566 59.567-19.438 18.653-42.127 24.896-50.648 12.3-5.787-8.557-2.94-19.74 1.23-26.987-6.566 10.698-6.432 20.155-2.117 27.124 8.407 13.58 31.818 8.067 52.948-12.51C76.484 46.49 85.131 19.936 77.672 6.542c-5.746-10.319-22.14-8.009-38.735 3.963" id="Fill-16"/></g><path d="M256.864 26.215c.995 0 1.967.265 2.914.793a5.544 5.544 0 0 1 2.216 2.269c.529.985.793 2.011.793 3.079a6.395 6.395 0 0 1-.782 3.05 5.605 5.605 0 0 1-2.191 2.273c-.94.54-1.923.81-2.95.81-1.026 0-2.01-.27-2.95-.81a5.628 5.628 0 0 1-2.195-2.273 6.365 6.365 0 0 1-.786-3.05c0-1.068.266-2.094.797-3.079a5.572 5.572 0 0 1 2.22-2.269c.948-.528 1.919-.793 2.914-.793Zm0 1.016c-.833 0-1.643.221-2.432.663a4.674 4.674 0 0 0-1.85 1.896 5.317 5.317 0 0 0-.668 2.566c0 .884.219 1.731.656 2.542a4.744 4.744 0 0 0 1.835 1.896c.786.452 1.605.679 2.459.679.854 0 1.673-.227 2.459-.679a4.715 4.715 0 0 0 1.831-1.896 5.316 5.316 0 0 0 .652-2.542c0-.889-.221-1.745-.664-2.566a4.643 4.643 0 0 0-1.85-1.896c-.791-.442-1.6-.663-2.428-.663Zm-2.602 8.51v-6.595h2.194c.75 0 1.292.061 1.627.183.336.122.603.335.802.638a1.787 1.787 0 0 1-.201 2.225c-.333.357-.776.558-1.327.601.225.098.406.214.542.349.256.26.57.696.942 1.308l.777 1.291h-1.249l-.567-1.039c-.447-.818-.807-1.33-1.08-1.536-.189-.151-.464-.225-.825-.223h-.605v2.798h-1.03Zm1.03-3.714h1.25c.597 0 1.005-.091 1.222-.275a.904.904 0 0 0 .327-.728.906.906 0 0 0-.158-.522.941.941 0 0 0-.436-.343c-.186-.076-.531-.114-1.034-.114h-1.171v1.982Z" id="Fill-18" fill="#1A1919"/><path d="M122.006 133.463h3.88v-11.56h5.3v-2.72h-14.48v2.72h5.3v11.56Zm9.879 0h3.52v-4.62c0-2.08 1.14-3.3 3.54-3.3.66 0 1.3.14 1.94.32v-3.3c-.4-.08-.88-.1-1.28-.1-2 0-3 .74-4.28 2.38h-.04v-2.1h-3.4v10.72Zm20.4 0h3.4v-10.72h-3.52v5.36c0 1.98-1.08 3.04-2.98 3.04-1.62 0-2.4-.72-2.4-2.2v-6.2h-3.52v7.26c0 3.16 2.78 3.86 4.6 3.86 2.06 0 3.74-.94 4.38-1.84h.04v1.44Zm6.18-3.32c.18 2.54 2.24 3.72 6.3 3.72 3.06 0 6.62-.44 6.62-3.62 0-1.86-1.16-2.92-4.74-3.3l-2.44-.26c-1.52-.16-1.78-.5-1.78-1 0-1.06 1.38-1.14 2.3-1.14 1.02 0 2.18.32 2.38 1.42h3.88c-.24-2-1.4-3.62-6.34-3.62-2.92 0-5.86.7-5.86 3.6 0 2.04 1.28 2.74 3.52 3.04l3.2.44c1.7.24 2 .48 2 1.08 0 .78-.94 1.16-2.54 1.16-1.82 0-2.46-.6-2.62-1.52h-3.88Zm16.84-7.4h-2.22v2.36h2.22v5.42c0 1.94.32 3.18 3.66 3.18.78 0 2.1-.12 2.76-.2v-2.36c-.56.04-1.1.08-1.72.08-.92 0-1.18-.28-1.18-1.12v-5h2.84v-2.36h-2.84v-3.32h-3.52v3.32Zm18.14 7.52c-.5.92-1.5 1.4-2.92 1.4-2.4 0-3.44-1.56-3.44-2.58v-.04h10.32v-.32c0-4.04-2.24-6.38-6.88-6.38-4.24 0-7.08 1.72-7.08 5.76s2.84 5.76 7.08 5.76c3.22 0 5.66-1.06 6.68-3.6h-3.76Zm-6.36-3.3v-.04c0-.26.58-2.38 3.36-2.38 2.58 0 3.32 1.8 3.32 2.38v.04h-6.68Zm16.26 1.2c0-2.04 1.54-3.1 3.32-3.1 1.76 0 3.3 1.06 3.3 3.1s-1.54 3.1-3.3 3.1c-1.78 0-3.32-1.06-3.32-3.1Zm6.62 5.3h3.4v-14.52h-3.52v5.12h-.04c-.68-.96-2.14-1.6-4.12-1.6-3.38 0-5.98 2.28-5.98 5.76 0 3.74 2.64 5.64 5.98 5.64 1.6 0 3.1-.36 4.24-1.74h.04v1.34Zm29.32-10.14c-.26-4.04-4.62-4.54-7.56-4.54-4.48 0-7.08 1.3-7.08 4.48 0 2.92 2.4 3.66 4.88 4.04l3.54.54c1.54.24 2.42.54 2.42 1.64 0 1.24-1.24 1.78-3.06 1.78-1.68 0-3.64-.34-3.68-2.3h-4.36c.04 4.46 4.56 4.9 8.04 4.9 5.62 0 7.42-2.14 7.42-4.8 0-2.6-1.98-3.58-4.58-4l-4.86-.78c-1-.16-1.64-.58-1.64-1.34 0-.96 1.04-1.68 2.64-1.68 1.56 0 3.34.2 3.58 2.06h4.3Zm3.179 10.14h3.52v-10.72h-3.52v10.72Zm0-12.04h3.52v-2.48h-3.52v2.48Zm8.06 1.32h-2.22v2.36h2.22v5.42c0 1.94.32 3.18 3.66 3.18.78 0 2.1-.12 2.76-.2v-2.36c-.56.04-1.1.08-1.72.08-.92 0-1.18-.28-1.18-1.12v-5h2.84v-2.36h-2.84v-3.32h-3.52v3.32Zm18.14 7.52c-.5.92-1.5 1.4-2.92 1.4-2.4 0-3.44-1.56-3.44-2.58v-.04h10.32v-.32c0-4.04-2.24-6.38-6.88-6.38-4.24 0-7.08 1.72-7.08 5.76s2.84 5.76 7.08 5.76c3.22 0 5.66-1.06 6.68-3.6h-3.76Zm-6.36-3.3v-.04c0-.26.58-2.38 3.36-2.38 2.58 0 3.32 1.8 3.32 2.38v.04h-6.68Z" id="Fill-19" fill="#FFFFFE"/></g></svg>